<?xml version="1.0" standalone="no"?><!DOCTYPE svg PUBLIC "-//W3C//DTD SVG 1.1//EN" "http://www.w3.org/Graphics/SVG/1.1/DTD/svg11.dtd"><svg t="1654153360877" class="icon" viewBox="0 0 1024 1024" version="1.1" xmlns="http://www.w3.org/2000/svg" p-id="2287" xmlns:xlink="http://www.w3.org/1999/xlink" width="200" height="200"><defs><style type="text/css">@font-face { font-family: feedback-iconfont; src: url("//at.alicdn.com/t/font_1031158_u69w8yhxdu.woff2?t=1630033759944") format("woff2"), url("//at.alicdn.com/t/font_1031158_u69w8yhxdu.woff?t=1630033759944") format("woff"), url("//at.alicdn.com/t/font_1031158_u69w8yhxdu.ttf?t=1630033759944") format("truetype"); }
</style></defs><path d="M525.341866 913.349901l-363.058806 0c-11.033287 0-20.008706-8.976442-20.008706-20.008706L142.274354 124.288724c0-11.033287 8.975419-20.008706 20.008706-20.008706l631.496581 0c11.032264 0 20.008706 8.975419 20.008706 20.008706l0 363.193883c0 11.050684 8.959046 20.008706 20.008706 20.008706 11.04966 0 20.008706-8.958022 20.008706-20.008706L853.80576 124.288724c0-33.098839-26.928303-60.027142-60.027142-60.027142L162.28306 64.261583c-33.098839 0-60.027142 26.928303-60.027142 60.027142l0 769.05247c0 33.098839 26.928303 60.027142 60.027142 60.027142l363.058806 0c11.050684 0 20.008706-8.959046 20.008706-20.008706C545.350572 922.308947 536.39255 913.349901 525.341866 913.349901z" p-id="2288"></path><path d="M715.324802 204.536396c0-11.050684-8.959046-20.008706-20.008706-20.008706L246.960625 184.52769c-11.050684 0-20.008706 8.958022-20.008706 20.008706 0 11.050684 8.958022 20.008706 20.008706 20.008706l448.355471 0C706.365756 224.546126 715.324802 215.588103 715.324802 204.536396z" p-id="2289"></path><path d="M467.63456 328.272535 246.960625 328.272535c-11.050684 0-20.008706 8.958022-20.008706 20.008706 0 11.050684 8.958022 20.008706 20.008706 20.008706L467.63456 368.289947c11.050684 0 20.008706-8.958022 20.008706-20.008706C487.643266 337.230558 478.685243 328.272535 467.63456 328.272535z" p-id="2290"></path><path d="M467.63456 472.01738 246.960625 472.01738c-11.050684 0-20.008706 8.958022-20.008706 20.008706s8.958022 20.008706 20.008706 20.008706L467.63456 512.034792c11.050684 0 20.008706-8.958022 20.008706-20.008706S478.685243 472.01738 467.63456 472.01738z" p-id="2291"></path><path d="M884.388289 543.66621l-131.218554 0L753.169735 356.166839c0-47.832402-38.915311-86.748736-86.74976-86.748736l-0.73678 0c-48.091298 0-87.216387 39.125089-87.216387 87.216387l0 201.644533c-13.299911 7.020904-25.061792 16.138562-34.95614 26.859741-33.55114-21.274536-78.616522-17.316387-107.854427 11.921517-33.843806 33.846876-33.843806 88.918145 0.001023 122.763998l93.650937 93.650937c1.49505 1.49505 3.170203 2.698458 4.953825 3.621481 12.707416 12.716626 28.873608 21.491477 45.409213 28.609595l-0.846274 94.909603c-0.047072 5.336542 2.039449 10.471492 5.79703 14.263865 3.75758 3.790326 8.873088 5.922896 14.211676 5.922896l268.086781 0c10.930957 0 19.838837-8.771781 20.006659-19.701714l1.418302-92.293009c21.959128-1.295506 41.312918-5.994528 52.861952-22.225187 11.745509-16.505929 11.745509-38.811957 11.745509-75.768661L952.952874 612.230796C952.952874 574.423725 922.194336 543.66621 884.388289 543.66621zM463.954751 625.356744c8.78406-8.78406 20.533662-13.623275 33.084513-13.623275 8.683776 0 16.983813 2.320858 24.184819 6.658653-7.985882 17.134239-12.344143 36.193317-12.344143 56.125275l0 61.934584-44.925189-44.925189C445.711248 673.284313 445.711248 643.60127 463.954751 625.356744zM912.934438 750.815107c0 24.938995 0 46.477544-4.331655 52.568263-2.77316 3.89675-16.220427 5.871731-39.969317 5.871731-10.930957 0-19.838837 8.771781-20.006659 19.701714l-1.411139 91.828428L619.022479 920.785244l0.785899-88.305185c0.072655-8.316409-5.006014-15.812127-12.755512-18.826787-44.567032-17.331737-58.154491-32.014134-58.154491-62.838164l0-76.29771c0-37.997406 22.662139-71.435982 57.734936-85.191264 8.454556-3.315512 13.617136-11.911284 12.570293-20.933775-0.11768-1.00284-0.264013-2.009773-0.412392-3.021823-0.124843-0.837064-0.294712-1.984191-0.304945-2.361791L618.486266 356.635513c0-26.025747 21.173229-47.198975 47.198975-47.198975l0.73678 0c25.76685 0 46.731324 20.963451 46.731324 46.731324l0 207.508078c0 11.050684 8.959046 20.008706 20.008706 20.008706l151.22726 0c15.739473 0 28.54615 12.806677 28.54615 28.547173L912.935462 750.815107z" p-id="2292"></path></svg>